<svg width="224" height="224" viewBox="0 0 224 224" fill="none" xmlns="http://www.w3.org/2000/svg">
<path d="M224 112C224 173.856 173.856 224 112 224C50.1441 224 0 173.856 0 112C0 50.1441 50.1441 0 112 0C173.856 0 224 50.1441 224 112Z" fill="#DEE2E6"/>
<path d="M92 141C92 134.373 97.3726 129 104 129H120C126.627 129 132 134.373 132 141V141C132 147.627 126.627 153 120 153H104C97.3726 153 92 147.627 92 141V141Z" fill="#9DAADE"/>
<path fill-rule="evenodd" clip-rule="evenodd" d="M40.6436 198.33C38.9359 193.882 38 189.05 38 184C38 161.909 55.9086 144 78 144H146C168.091 144 186 161.909 186 184C186 189.05 185.064 193.882 183.356 198.33C163.98 214.364 139.115 224 112 224C84.8849 224 60.0203 214.364 40.6436 198.33Z" fill="#FAFAFA"/>
<rect x="51" y="56" width="120" height="80" rx="40" fill="#FAFAFA"/>
<rect x="163" y="80" width="16" height="32" rx="8" fill="#FAFAFA"/>
<rect x="43" y="80" width="16" height="32" rx="8" fill="#FAFAFA"/>
<rect x="67" y="32" width="16" height="48" rx="8" fill="#FAFAFA"/>
<rect x="138" y="32" width="16" height="48" rx="8" fill="#FAFAFA"/>
<path d="M71 81C71 74.3726 76.3726 69 83 69H139C145.627 69 151 74.3726 151 81V81C151 87.6274 145.627 93 139 93H83C76.3726 93 71 87.6274 71 81V81Z" fill="#DEE2E6"/>
<circle cx="91" cy="81" r="8" fill="#9DAADE"/>
<circle cx="131" cy="81" r="8" fill="#9DAADE"/>
<path d="M122.364 110.017C121.515 112.628 119.862 114.904 117.641 116.517C115.42 118.131 112.745 119 110 119C107.255 119 104.58 118.131 102.359 116.517C100.138 114.904 98.4846 112.628 97.6363 110.017" stroke="#9DAADE" stroke-width="6" stroke-linecap="round"/>
</svg>
